<?xml version="1.0" encoding="utf-8"?>
<!-- Generator: Adobe Illustrator 27.5.0, SVG Export Plug-In . SVG Version: 6.00 Build 0)  -->
<svg version="1.1" xmlns="http://www.w3.org/2000/svg" xmlns:xlink="http://www.w3.org/1999/xlink" x="0px" y="0px"
	 viewBox="0 0 500 500" style="enable-background:new 0 0 500 500;" xml:space="preserve">
<g id="Background_Complete">
	<g>
		<rect y="382.398" style="fill:#EBEBEB;" width="500" height="0.25"/>
		<rect x="394.667" y="398.494" style="fill:#EBEBEB;" width="55.235" height="0.25"/>
		<rect x="321.807" y="393.25" style="fill:#EBEBEB;" width="8.693" height="0.25"/>
		<rect x="372.474" y="389.208" style="fill:#EBEBEB;" width="19.192" height="0.25"/>
		<rect x="52.459" y="390.888" style="fill:#EBEBEB;" width="43.193" height="0.25"/>
		<rect x="215.333" y="397.347" style="fill:#EBEBEB;" width="45.722" height="0.25"/>
		<rect x="140.464" y="393.125" style="fill:#EBEBEB;" width="93.676" height="0.25"/>
		<path style="fill:#EBEBEB;" d="M242.721,332.092c0,3.147-2.561,5.708-5.707,5.708H43.915c-3.147,0-5.708-2.561-5.708-5.708V60.66
			c0-3.147,2.561-5.708,5.708-5.708h193.099c3.146,0,5.707,2.561,5.707,5.708 M242.471,60.66c0-3.009-2.448-5.458-5.457-5.458
			H43.915c-3.01,0-5.458,2.448-5.458,5.458v271.432c0,3.01,2.448,5.458,5.458,5.458h193.099c3.009,0,5.457-2.448,5.457-5.458"/>
		<path style="fill:#EBEBEB;" d="M453.31,337.8H260.212c-3.147,0-5.707-2.561-5.707-5.708V60.66c0-3.147,2.561-5.708,5.707-5.708
			H453.31c3.148,0,5.708,2.561,5.708,5.708v271.432C459.019,335.239,456.458,337.8,453.31,337.8z M260.212,55.203
			c-3.009,0-5.457,2.448-5.457,5.458v271.432c0,3.01,2.448,5.458,5.457,5.458H453.31c3.01,0,5.458-2.448,5.458-5.458V60.66
			c0-3.009-2.448-5.458-5.458-5.458H260.212z"/>
	</g>
	<g>
		<g>
			
				<rect x="70.665" y="256.033" transform="matrix(-1 -1.224647e-16 1.224647e-16 -1 201.4776 638.4313)" style="fill:#E6E6E6;" width="60.147" height="126.366"/>
			<polygon style="fill:#F0F0F0;" points="76.715,382.398 70.665,382.398 70.665,365.19 83.059,365.19 			"/>
			
				<rect x="229.709" y="256.033" transform="matrix(-1 -1.224647e-16 1.224647e-16 -1 519.565 638.4313)" style="fill:#E6E6E6;" width="60.148" height="126.366"/>
			
				<rect x="70.665" y="256.033" transform="matrix(-1 -1.224647e-16 1.224647e-16 -1 305.654 627.8713)" style="fill:#F0F0F0;" width="164.323" height="115.805"/>
			
				<rect x="75.359" y="261.166" transform="matrix(-1 -1.224647e-16 1.224647e-16 -1 305.654 554.0896)" style="fill:#E6E6E6;" width="154.937" height="31.758"/>
			<path style="fill:#F0F0F0;" d="M141.859,271.035h21.936c9.528,0,18.638-3.918,25.191-10.835l0,0h-72.318l0,0
				C123.221,267.117,132.33,271.035,141.859,271.035z"/>
			<polygon style="fill:#F0F0F0;" points="228.939,382.398 234.989,382.398 234.989,365.19 222.595,365.19 			"/>
			
				<rect x="75.359" y="298.057" transform="matrix(-1 -1.224647e-16 1.224647e-16 -1 305.654 627.8714)" style="fill:#E6E6E6;" width="154.937" height="31.758"/>
			<path style="fill:#F0F0F0;" d="M141.859,307.926h21.936c9.528,0,18.638-3.918,25.191-10.835l0,0h-72.318l0,0
				C123.221,304.008,132.33,307.926,141.859,307.926z"/>
			
				<rect x="75.359" y="334.948" transform="matrix(-1 -1.224647e-16 1.224647e-16 -1 305.654 701.6532)" style="fill:#E6E6E6;" width="154.937" height="31.758"/>
			<path style="fill:#F0F0F0;" d="M141.859,344.817h21.936c9.528,0,18.638-3.918,25.191-10.835l0,0h-72.318l0,0
				C123.221,340.899,132.33,344.817,141.859,344.817z"/>
		</g>
		<g>
			<g>
				<path style="fill:#EBEBEB;" d="M88.138,256.033h-4.284c-0.328,0-0.593-0.266-0.593-0.593v-40.334
					c0-0.328,0.266-0.594,0.593-0.594h4.284c0.328,0,0.594,0.266,0.594,0.594v40.334C88.732,255.767,88.466,256.033,88.138,256.033z
					"/>
				<rect x="83.26" y="218.79" style="fill:#FAFAFA;" width="5.471" height="15.109"/>
				<rect x="83.26" y="238.557" style="fill:#FAFAFA;" width="5.471" height="9.315"/>
				<path style="fill:#E0E0E0;" d="M111.444,256.033H89.326c-0.328,0-0.594-0.266-0.594-0.593v-40.334
					c0-0.328,0.266-0.594,0.594-0.594h22.119c0.328,0,0.594,0.266,0.594,0.594v40.334
					C112.038,255.767,111.772,256.033,111.444,256.033z"/>
			</g>
			<g>
				<path style="fill:#EBEBEB;" d="M96.856,256.033H92.13c-0.362,0-0.655-0.293-0.655-0.655v-44.493
					c0-0.362,0.293-0.655,0.655-0.655h4.725c0.362,0,0.655,0.293,0.655,0.655v44.493C97.51,255.74,97.217,256.033,96.856,256.033z"
					/>
				<rect x="91.472" y="216.215" style="fill:#FAFAFA;" width="6.035" height="4.091"/>
				<rect x="91.472" y="228.082" style="fill:#FAFAFA;" width="6.035" height="4.091"/>
				<rect x="91.472" y="239.949" style="fill:#FAFAFA;" width="6.035" height="4.091"/>
				<path style="fill:#E0E0E0;" d="M122.613,256.033h-24.4c-0.362,0-0.655-0.293-0.655-0.655v-44.493
					c0-0.362,0.293-0.655,0.655-0.655h24.4c0.362,0,0.655,0.293,0.655,0.655v44.493C123.268,255.74,122.975,256.033,122.613,256.033
					z"/>
			</g>
			<g>
				<path style="fill:#EBEBEB;" d="M105.142,256.033h-4.284c-0.328,0-0.594-0.266-0.594-0.593v-40.334
					c0-0.328,0.266-0.594,0.594-0.594h4.284c0.328,0,0.594,0.266,0.594,0.594v40.334
					C105.735,255.767,105.469,256.033,105.142,256.033z"/>
				<rect x="100.264" y="222.668" style="fill:#FAFAFA;" width="5.471" height="7.751"/>
				<rect x="100.264" y="232.808" style="fill:#FAFAFA;" width="5.471" height="4.779"/>
				<path style="fill:#E0E0E0;" d="M128.448,256.033h-22.119c-0.328,0-0.594-0.266-0.594-0.593v-40.334
					c0-0.328,0.266-0.594,0.594-0.594h22.119c0.328,0,0.594,0.266,0.594,0.594v40.334
					C129.041,255.767,128.776,256.033,128.448,256.033z"/>
			</g>
			<g>
				<path style="fill:#EBEBEB;" d="M113.179,256.033h-4.725c-0.362,0-0.655-0.293-0.655-0.655v-34.417
					c0-0.362,0.293-0.655,0.655-0.655h4.725c0.362,0,0.655,0.293,0.655,0.655v34.417C113.833,255.74,113.54,256.033,113.179,256.033
					z"/>
				<rect x="107.793" y="228.338" style="fill:#FAFAFA;" width="6.035" height="6.609"/>
				<rect x="107.793" y="250.025" style="fill:#FAFAFA;" width="6.035" height="1.573"/>
				<rect x="107.793" y="236.421" style="fill:#FAFAFA;" width="6.035" height="6.609"/>
				<path style="fill:#E0E0E0;" d="M138.936,256.033h-24.4c-0.362,0-0.655-0.293-0.655-0.655v-34.417
					c0-0.362,0.293-0.655,0.655-0.655h24.4c0.362,0,0.655,0.293,0.655,0.655v34.417C139.591,255.74,139.298,256.033,138.936,256.033
					z"/>
			</g>
			<g>
				<path style="fill:#EBEBEB;" d="M121.197,256.033h-4.267c-0.332,0-0.602-0.269-0.602-0.602v-41.493
					c0-0.333,0.27-0.602,0.602-0.602h4.267c0.332,0,0.602,0.269,0.602,0.602v41.493C121.799,255.764,121.53,256.033,121.197,256.033
					z"/>
				<rect x="116.327" y="217.735" style="fill:#FAFAFA;" width="5.471" height="15.537"/>
				<rect x="116.327" y="238.061" style="fill:#FAFAFA;" width="5.471" height="9.579"/>
				<path style="fill:#E0E0E0;" d="M144.503,256.033h-22.102c-0.332,0-0.602-0.269-0.602-0.602v-41.493
					c0-0.333,0.269-0.602,0.602-0.602h22.102c0.333,0,0.602,0.269,0.602,0.602v41.493
					C145.105,255.764,144.836,256.033,144.503,256.033z"/>
			</g>
			<g>
				<path style="fill:#EBEBEB;" d="M129.98,256.033h-4.839c-0.33,0-0.598-0.268-0.598-0.598v-36.988c0-0.33,0.268-0.598,0.598-0.598
					h4.839c0.33,0,0.598,0.268,0.598,0.598v36.988C130.578,255.765,130.31,256.033,129.98,256.033z"/>
				<rect x="124.539" y="222.838" style="fill:#FAFAFA;" width="6.035" height="3.411"/>
				<rect x="124.539" y="232.731" style="fill:#FAFAFA;" width="6.035" height="3.411"/>
				<rect x="124.539" y="242.624" style="fill:#FAFAFA;" width="6.035" height="3.411"/>
				<path style="fill:#E0E0E0;" d="M155.738,256.033h-24.514c-0.33,0-0.598-0.268-0.598-0.598v-36.988
					c0-0.33,0.268-0.598,0.598-0.598h24.514c0.33,0,0.598,0.268,0.598,0.598v36.988
					C156.336,255.765,156.068,256.033,155.738,256.033z"/>
			</g>
			<g>
				<path style="fill:#EBEBEB;" d="M138.209,256.033h-4.284c-0.328,0-0.594-0.266-0.594-0.593v-40.334
					c0-0.328,0.266-0.594,0.594-0.594h4.284c0.328,0,0.594,0.266,0.594,0.594v40.334
					C138.803,255.767,138.537,256.033,138.209,256.033z"/>
				<rect x="133.331" y="222.668" style="fill:#FAFAFA;" width="5.471" height="7.751"/>
				<rect x="133.331" y="232.808" style="fill:#FAFAFA;" width="5.471" height="4.779"/>
				<path style="fill:#E0E0E0;" d="M161.515,256.033h-22.119c-0.328,0-0.593-0.266-0.593-0.593v-40.334
					c0-0.328,0.266-0.594,0.593-0.594h22.119c0.328,0,0.594,0.266,0.594,0.594v40.334
					C162.109,255.767,161.843,256.033,161.515,256.033z"/>
			</g>
			<g>
				<path style="fill:#EBEBEB;" d="M146.246,256.033h-4.726c-0.362,0-0.655-0.293-0.655-0.655v-34.417
					c0-0.362,0.293-0.655,0.655-0.655h4.726c0.362,0,0.655,0.293,0.655,0.655v34.417
					C146.901,255.74,146.607,256.033,146.246,256.033z"/>
				<rect x="140.86" y="228.338" style="fill:#FAFAFA;" width="6.035" height="6.609"/>
				<rect x="140.86" y="250.025" style="fill:#FAFAFA;" width="6.035" height="1.573"/>
				<rect x="140.86" y="236.421" style="fill:#FAFAFA;" width="6.035" height="6.609"/>
				<path style="fill:#E0E0E0;" d="M172.003,256.033h-24.4c-0.362,0-0.655-0.293-0.655-0.655v-34.417
					c0-0.362,0.293-0.655,0.655-0.655h24.4c0.362,0,0.655,0.293,0.655,0.655v34.417C172.658,255.74,172.365,256.033,172.003,256.033
					z"/>
			</g>
		</g>
		<g>
			<g>
				
					<rect x="69.451" y="100.486" transform="matrix(-1 -1.224647e-16 1.224647e-16 -1 357.6881 266.8447)" style="fill:#E6E6E6;" width="218.787" height="65.873"/>
				
					<rect x="64.81" y="100.486" transform="matrix(-1 -1.224647e-16 1.224647e-16 -1 350.8791 266.8447)" style="fill:#F0F0F0;" width="221.259" height="65.873"/>
				
					<rect x="69.451" y="166.359" transform="matrix(-1 -1.224647e-16 1.224647e-16 -1 357.6881 341.3416)" style="fill:#E6E6E6;" width="218.787" height="8.623"/>
				
					<rect x="57.079" y="166.359" transform="matrix(-1 -1.224647e-16 1.224647e-16 -1 335.4173 341.3416)" style="fill:#F0F0F0;" width="221.259" height="8.623"/>
				
					<rect x="149" y="29.29" transform="matrix(-1.836970e-16 1 -1 -1.836970e-16 308.8621 -42.0173)" style="fill:#FAFAFA;" width="52.88" height="208.266"/>
				<polygon style="fill:#FFFFFF;" points="224.457,159.863 186.326,106.982 147.305,106.982 185.436,159.863 				"/>
				<path style="fill:#F0F0F0;" d="M276.565,154.788c0.257,0,0.464-0.208,0.464-0.464v-43.115c0-0.256-0.207-0.464-0.464-0.464
					s-0.464,0.208-0.464,0.464v43.115C276.101,154.58,276.308,154.788,276.565,154.788z"/>
				<polygon style="fill:#FFFFFF;" points="170.766,159.863 132.635,106.982 119.134,106.982 157.265,159.863 				"/>
				
					<rect x="45.279" y="133.01" transform="matrix(-1.836970e-16 1 -1 -1.836970e-16 205.1418 61.703)" style="fill:#E6E6E6;" width="52.88" height="0.825"/>
				<polygon style="opacity:0.4;fill:#E6E6E6;" points="63.274,113.531 282.06,113.531 282.658,109.508 63.871,109.508 				"/>
				<polygon style="opacity:0.4;fill:#E6E6E6;" points="63.274,120.175 282.06,120.175 282.658,116.151 63.871,116.151 				"/>
				<polygon style="opacity:0.4;fill:#E6E6E6;" points="63.274,126.819 282.06,126.819 282.658,122.795 63.871,122.795 				"/>
				<polygon style="opacity:0.4;fill:#E6E6E6;" points="63.274,133.463 282.06,133.463 282.658,129.439 63.871,129.439 				"/>
				<polygon style="opacity:0.4;fill:#E6E6E6;" points="63.274,140.107 282.06,140.107 282.658,136.083 63.871,136.083 				"/>
				<polygon style="opacity:0.4;fill:#E6E6E6;" points="63.274,146.751 282.06,146.751 282.658,142.727 63.871,142.727 				"/>
			</g>
		</g>
		<g>
			<g>
				
					<rect x="323.7" y="100.486" transform="matrix(-1 -1.224647e-16 1.224647e-16 -1 731.8082 350.5491)" style="fill:#E6E6E6;" width="84.409" height="149.578"/>
				<path style="fill:#F0F0F0;" d="M334.113,104.579c0.122,0.001,0.245-0.031,0.359-0.099c0.199-0.12,20.061-11.931,26.32-11.931
					c6.251,0,25.19,11.804,25.38,11.924c0.329,0.207,0.763,0.104,0.967-0.223c0.206-0.328,0.106-0.761-0.222-0.967
					c-0.793-0.495-19.475-12.137-26.125-12.137c-6.642,0-26.209,11.634-27.04,12.129c-0.332,0.199-0.441,0.629-0.242,0.962
					C333.641,104.458,333.873,104.579,334.113,104.579z"/>
				
					<rect x="314.557" y="100.486" transform="matrix(-1 -1.224647e-16 1.224647e-16 -1 716.3029 350.5491)" style="fill:#F0F0F0;" width="87.188" height="149.578"/>
				
					<rect x="290.667" y="138.985" transform="matrix(-1.836970e-16 1 -1 -1.836970e-16 533.4261 -182.877)" style="fill:#FFFFFF;" width="134.969" height="72.58"/>
			</g>
		</g>
		<g>
			<rect x="364.515" y="319.371" style="fill:#E0E0E0;" width="52.598" height="63.027"/>
			<polygon style="fill:#E0E0E0;" points="417.114,319.371 364.515,319.371 375.068,300.567 427.667,300.567 			"/>
			<polygon style="fill:#F5F5F5;" points="313.243,300.567 260.645,300.567 271.198,319.371 323.796,319.371 			"/>
			
				<rect x="271.198" y="319.371" transform="matrix(-1 -1.224647e-16 1.224647e-16 -1 635.7131 701.7695)" style="fill:#F5F5F5;" width="93.318" height="63.027"/>
			
				<rect x="335.155" y="336.205" transform="matrix(-1 -1.224647e-16 1.224647e-16 -1 699.6707 701.7695)" style="fill:#F0F0F0;" width="29.36" height="29.36"/>
			
				<rect x="283.774" y="336.205" transform="matrix(-1 -1.224647e-16 1.224647e-16 -1 584.4411 689.3017)" style="fill:#F0F0F0;" width="16.892" height="16.892"/>
			
				<rect x="283.774" y="357.119" transform="matrix(-1 -1.224647e-16 1.224647e-16 -1 584.4411 731.1296)" style="fill:#F0F0F0;" width="16.892" height="16.892"/>
			<rect x="364.515" y="336.205" style="fill:#E6E6E6;" width="15.151" height="29.36"/>
		</g>
	</g>
</g>
<g id="Background_Simple" style="display:none;">
	<g style="display:inline;">
		<g>
			<path style="fill:#407BFF;" d="M313.703,152.048c-28.824-19.692-45.897-61.437-84.992-63.162
				c-19.114-0.843-31.367,12.989-49.053,16.478c-15.207,3-25.504-4.736-39.857-4.777c-35.715-0.101-60.992,24.026-51.564,61.476
				c9.006,35.772,30.211,70.765,79.983,96.299c74.037,37.983,142.261,40.627,199.784,3.799
				c47.552-30.444,53.854-93.877,32.299-112.01C383.434,135.961,341.142,170.793,313.703,152.048z"/>
		</g>
		<g style="opacity:0.9;">
			<path style="fill:#FFFFFF;" d="M313.703,152.048c-28.824-19.692-45.897-61.437-84.992-63.162
				c-19.114-0.843-31.367,12.989-49.053,16.478c-15.207,3-25.504-4.736-39.857-4.777c-35.715-0.101-60.992,24.026-51.564,61.476
				c9.006,35.772,30.211,70.765,79.983,96.299c74.037,37.983,142.261,40.627,199.784,3.799
				c47.552-30.444,53.854-93.877,32.299-112.01C383.434,135.961,341.142,170.793,313.703,152.048z"/>
		</g>
	</g>
</g>
<g id="Shadow_1_">
	<ellipse id="_x3C_Path_x3E__65_" style="fill:#F5F5F5;" cx="250" cy="416.238" rx="193.889" ry="11.323"/>
</g>
<g id="Icons">
	<g>
		<g>
			
				<ellipse transform="matrix(0.8253 -0.5647 0.5647 0.8253 -47.3949 115.158)" style="fill:#407BFF;" cx="162.433" cy="134.183" rx="15.012" ry="15.012"/>
			<g>
				<path style="fill:#FFFFFF;" d="M160.947,132.88l-8.401-3.579c0.179-0.105,0.379-0.168,0.6-0.168h18.57
					c0.221,0,0.422,0.063,0.6,0.168l-8.401,3.579C162.979,133.279,161.894,133.279,160.947,132.88z"/>
				<path style="fill:#FFFFFF;" d="M172.927,130.635v8.159c0,0.663-0.548,1.21-1.211,1.21h-18.57c-0.664,0-1.211-0.547-1.211-1.21
					v-8.159c0-0.053,0-0.105,0.011-0.148l8.59,3.653c0.6,0.253,1.253,0.39,1.895,0.39c0.653,0,1.295-0.137,1.906-0.39l8.58-3.653
					C172.927,130.53,172.927,130.582,172.927,130.635z"/>
			</g>
		</g>
		<g>
			
				<ellipse transform="matrix(0.284 -0.9588 0.9588 0.284 105.5742 271.8722)" style="fill:#407BFF;" cx="234.823" cy="65.247" rx="15.012" ry="15.012"/>
			<g>
				<path style="fill:#FFFFFF;" d="M241.956,58.416H227.69c-1.498,0-2.729,1.231-2.729,2.729v7.367c0,1.498,1.231,2.729,2.729,2.729
					h10.468l-0.076,2.577l2.643-2.577h1.231c1.498,0,2.729-1.231,2.729-2.729v-7.367C244.685,59.646,243.454,58.416,241.956,58.416z
					 M227.366,61.555c0-0.42,0.344-0.763,0.763-0.763h3.283c0.42,0,0.754,0.344,0.754,0.763c0,0.41-0.334,0.754-0.754,0.754h-3.283
					C227.709,62.309,227.366,61.965,227.366,61.555z M241.145,68.683h-5.678c-0.411,0-0.754-0.334-0.754-0.754
					c0-0.42,0.343-0.754,0.754-0.754h5.678c0.42,0,0.754,0.334,0.754,0.754C241.899,68.349,241.565,68.683,241.145,68.683z
					 M241.145,65.496h-12.253c-0.41,0-0.754-0.334-0.754-0.754c0-0.42,0.344-0.754,0.754-0.754h12.253
					c0.42,0,0.754,0.334,0.754,0.754C241.899,65.162,241.565,65.496,241.145,65.496z M241.145,62.309h-7.252
					c-0.42,0-0.754-0.344-0.754-0.754c0-0.42,0.334-0.763,0.754-0.763h7.252c0.42,0,0.754,0.344,0.754,0.763
					C241.899,61.965,241.565,62.309,241.145,62.309z"/>
			</g>
		</g>
		<g>
			
				<ellipse transform="matrix(0.4871 -0.8734 0.8734 0.4871 19.8771 209.0825)" style="fill:#407BFF;" cx="187.94" cy="87.619" rx="15.012" ry="15.012"/>
			<path style="fill:#FFFFFF;" d="M194.434,81.267h-12.988c-1.299,0-2.365,1.066-2.365,2.365v7.978c0,1.299,1.066,2.36,2.365,2.36
				h12.988c1.304,0,2.365-1.061,2.365-2.36v-7.978C196.799,82.334,195.738,81.267,194.434,81.267z M185.87,90.956v-6.668
				l5.776,3.331L185.87,90.956z"/>
		</g>
		<g>
			
				<ellipse transform="matrix(0.9046 -0.4263 0.4263 0.9046 -4.5846 129.9277)" style="fill:#407BFF;" cx="287.918" cy="75.204" rx="15.012" ry="15.012"/>
			<path style="fill:#FFFFFF;" d="M294.558,77.101c2.357-2.357,2.357-6.18,0-8.537c-2.357-2.357-6.18-2.357-8.537,0
				c-2.191,2.192-2.345,5.649-0.462,8.019c-0.405,0.317-0.8,0.644-1.191,0.975c-0.564,0.479-1.117,0.968-1.661,1.466
				c-0.543,0.5-1.081,1.004-1.608,1.519c-0.266,0.255-0.525,0.517-0.788,0.775c-0.135,0.126-0.252,0.269-0.335,0.447
				c-0.042,0.089-0.075,0.185-0.098,0.293c-0.022,0.108-0.038,0.223-0.027,0.364c0.035,0.447,0.39,0.815,0.851,0.851
				c0.141,0.011,0.256-0.005,0.364-0.027c0.108-0.023,0.204-0.057,0.293-0.098c0.178-0.083,0.321-0.2,0.447-0.335
				c0.258-0.263,0.521-0.522,0.775-0.788c0.515-0.527,1.019-1.066,1.519-1.608c0.498-0.545,0.987-1.098,1.466-1.661
				c0.331-0.391,0.658-0.786,0.975-1.191C288.91,79.446,292.367,79.293,294.558,77.101z M286.922,76.2
				c-1.86-1.86-1.86-4.876,0-6.736c1.86-1.86,4.876-1.86,6.736,0c1.86,1.86,1.861,4.876,0,6.737
				C291.798,78.061,288.782,78.061,286.922,76.2z"/>
		</g>
		<g>
			
				<ellipse transform="matrix(0.8253 -0.5647 0.5647 0.8253 -7.3208 202.4191)" style="fill:#407BFF;" cx="323.51" cy="113.042" rx="15.012" ry="15.012"/>
			<path style="fill:#FFFFFF;" d="M333.129,113.042c0-0.021-0.01-0.04-0.012-0.061c-0.003-0.489-0.032-0.983-0.113-1.48
				c-0.411-2.532-1.786-4.755-3.872-6.259c-1.605-1.157-3.48-1.774-5.411-1.813c-0.062-0.004-0.124-0.001-0.186-0.002
				c-0.009,0-0.016-0.005-0.025-0.005c-0.008,0-0.015,0.004-0.023,0.005c-0.082,0.001-0.163,0.003-0.245,0.009
				c-0.423,0.013-0.848,0.043-1.272,0.112c-4.699,0.762-8.043,4.831-8.067,9.442c-0.001,0.019-0.011,0.034-0.011,0.053
				c0,0.021,0.01,0.037,0.012,0.058c0.003,0.49,0.032,0.984,0.113,1.483c0.764,4.707,4.844,8.065,9.465,8.077
				c0.008,0,0.016,0.002,0.023,0.002c0.008,0,0.016-0.002,0.024-0.002c0.502-0.001,1.012-0.041,1.523-0.124
				c4.699-0.763,8.043-4.83,8.068-9.439C333.119,113.078,333.129,113.062,333.129,113.042z M330.602,116.843h-1.682
				c0.244-0.944,0.396-1.961,0.446-3.021h2.156C331.416,114.896,331.098,115.918,330.602,116.843z M316.418,109.241h1.682
				c-0.244,0.944-0.396,1.961-0.446,3.021h-2.156C315.603,111.188,315.921,110.165,316.418,109.241z M327.763,111.699
				c0.017,0.188,0.026,0.376,0.036,0.563h-3.51v-3.021h2.999C327.514,110.003,327.681,110.825,327.763,111.699z M324.29,107.68
				v-2.552c0.217,0.079,0.432,0.188,0.645,0.334c0.686,0.471,1.282,1.248,1.756,2.217H324.29z M322.729,105.136v2.544h-2.41
				C320.936,106.404,321.771,105.482,322.729,105.136z M322.729,109.241v3.021h-3.508c0.059-1.069,0.235-2.093,0.508-3.021H322.729z
				 M315.556,114.333c-0.028-0.171-0.04-0.341-0.057-0.511h2.158c0.012,0.235,0.023,0.471,0.045,0.708
				c0.076,0.81,0.213,1.584,0.4,2.313h-1.689C316.002,116.077,315.703,115.237,315.556,114.333z M319.256,114.385
				c-0.018-0.188-0.026-0.376-0.036-0.563h3.509v3.021h-2.999C319.505,116.081,319.338,115.258,319.256,114.385z M322.729,118.403
				v2.543c-0.217-0.079-0.432-0.18-0.645-0.326c-0.686-0.471-1.282-1.247-1.756-2.217H322.729z M324.29,120.948v-2.545h2.41
				C326.084,119.68,325.249,120.602,324.29,120.948z M324.29,116.843v-3.021h3.508c-0.059,1.069-0.235,2.093-0.507,3.021H324.29z
				 M329.362,112.262c-0.012-0.235-0.023-0.47-0.045-0.708c-0.076-0.81-0.213-1.584-0.4-2.313h1.69
				c0.415,0.775,0.711,1.618,0.855,2.51c0.028,0.171,0.04,0.341,0.057,0.51H329.362z M329.517,107.68h-1.12
				c-0.23-0.567-0.49-1.097-0.79-1.57c0.208,0.124,0.413,0.255,0.612,0.398C328.699,106.854,329.13,107.25,329.517,107.68z
				 M319.402,106.118c-0.298,0.473-0.56,0.999-0.789,1.563h-1.11C318.047,107.069,318.687,106.543,319.402,106.118z
				 M317.505,118.403h1.118c0.231,0.57,0.493,1.101,0.794,1.576C318.703,119.557,318.06,119.023,317.505,118.403z M327.618,119.965
				c0.298-0.472,0.56-0.998,0.789-1.562h1.11C328.973,119.014,328.332,119.54,327.618,119.965z"/>
		</g>
		<g>
			
				<ellipse transform="matrix(0.8253 -0.5647 0.5647 0.8253 -35.8402 215.5124)" style="fill:#407BFF;" cx="330.413" cy="165.685" rx="15.012" ry="15.012"/>
			<path style="fill:#FFFFFF;" d="M330.413,156.657c-4.403,0-7.974,3.571-7.974,7.974c0,3.777,2.627,6.941,6.153,7.763l1.821,2.318
				l1.821-2.318c0,0,0,0,0.001,0c3.525-0.824,6.152-3.988,6.152-7.763C338.387,160.228,334.816,156.657,330.413,156.657z
				 M330.413,167.954c-1.835,0-3.321-1.488-3.321-3.323c0-1.835,1.486-3.321,3.321-3.321s3.323,1.486,3.323,3.321
				C333.736,166.466,332.248,167.954,330.413,167.954z"/>
		</g>
	</g>
</g>
<g id="Character_1_">
	<g>
		<polygon style="fill:#B55B52;" points="241.033,407.624 233.32,407.624 232.989,389.762 240.702,389.762 		"/>
		<polygon style="fill:#B55B52;" points="287.343,407.624 279.63,407.624 276.191,389.762 283.904,389.762 		"/>
		<path style="fill:#263238;" d="M279.104,406.731h8.665c0.315,0,0.583,0.219,0.644,0.527l1.355,6.856
			c0.141,0.711-0.435,1.384-1.163,1.372c-3.024-0.052-4.489-0.229-8.3-0.229c-2.344,0-7.18,0.244-10.418,0.244
			c-3.167,0-3.582-3.201-2.249-3.491c5.975-1.3,8.257-3.093,10.202-4.803C278.191,406.897,278.643,406.731,279.104,406.731z"/>
		<path style="fill:#263238;" d="M233.393,406.731h8.423c0.315,0,0.583,0.219,0.644,0.527l1.356,6.856
			c0.141,0.711-0.416,1.384-1.143,1.372c-3.037-0.052-7.424-0.23-11.243-0.23c-4.465,0-8.328,0.244-13.565,0.244
			c-3.166,0-3.967-3.201-2.634-3.491c6.066-1.32,10.996-1.462,16.29-4.677C232.095,406.983,232.727,406.731,233.393,406.731z"/>
		<path style="fill:#B55B52;" d="M233.165,165.55l-8.23-7.379c0,0-20.213,18.556-24.176,18.495
			c-5.394-0.082-16.616-0.648-22.878-1.967c-1.117,0.682-3.422,3.271-3.65,4.435c7.169,5.661,25.854,9.726,30.537,8.143
			C215.445,183.667,233.165,165.55,233.165,165.55z"/>
		<path style="fill:#263238;" d="M237.776,161.268c-0.054,7.373-19.651,22.082-19.651,22.082l-11.389-13.078
			c0,0,7-8.336,14.811-14.007C229.567,150.442,237.835,153.176,237.776,161.268z"/>
		<path style="opacity:0.2;" d="M218.127,183.35c0,0,18.095-13.582,19.552-21.182C235.37,159.802,223.027,166.577,218.127,183.35z"
			/>
		<path style="fill:#B55B52;" d="M179.114,175.066l-6.835-6.288l-6.127,7.865c0,0,4.302,2.501,9.794,3.529L179.114,175.066z"/>
		<polygon style="fill:#B55B52;" points="164.139,165.076 162.025,171.016 166.153,176.643 172.28,168.777 		"/>
		<g>
			<polygon style="opacity:0.2;" points="232.991,389.767 233.16,398.974 240.876,398.974 240.707,389.767 			"/>
			<polygon style="opacity:0.2;" points="283.907,389.767 276.191,389.767 277.967,398.974 285.684,398.974 			"/>
		</g>
		<path style="fill:#263238;" d="M227.779,153.495c0,0-9.674,23.292-2.091,66.667c12.43,0,35.206,0,41.255,0
			c0.439-6.333-2.782-37.226,4.057-67.065c0,0-7.037-1.419-13.768-1.744c-5.265-0.254-12.893-0.422-17.537,0.001
			C233.573,151.912,227.779,153.495,227.779,153.495z"/>
		<path style="opacity:0.2;" d="M261.858,160.465c-0.807,4.91,0.454,16.66,4.798,30.237c0.271-10.449,1.196-22.564,3.699-34.636
			l0.002-0.058C267.645,155.73,262.629,155.861,261.858,160.465z"/>
		<path style="fill:#B55B52;" d="M255.343,134.952c-1.245,5.643-1.965,12.636,1.89,16.402c0,0-2.408,5.724-12.893,5.724
			c-9.581,0-4.644-5.723-4.644-5.723c6.329-1.503,6.192-9.284,5.203-13.668L255.343,134.952z"/>
		<path style="fill:#407BFF;" d="M243.844,156.625l-2.27,2.511c-0.162,0.18-0.217,0.431-0.143,0.656l0.727,2.213
			c0.083,0.253,0.313,0.427,0.58,0.44l2.445,0.118c0.233,0.011,0.458-0.102,0.591-0.298l1.462-2.149
			c0.171-0.251,0.153-0.582-0.042-0.805l-2.365-2.693C244.573,156.325,244.112,156.328,243.844,156.625z"/>
		<path style="fill:#FFFFFF;" d="M244.348,156.068c1.854,2.815,1.872,6.429,1.872,6.429s13.244-4.632,12.798-11.419
			c0,0-1.836-1.107-2.999-2.006C256.019,149.072,255.468,153.349,244.348,156.068z"/>
		<path style="fill:#FFFFFF;" d="M244.348,156.068c-1.992,2.815-2.708,6.021-2.708,6.021s-5.851-4.025-3.9-10.735
			c0,0,1.696-0.703,3.388-1.069C241.128,150.285,240.241,154.616,244.348,156.068z"/>
		<path style="fill:#407BFF;" d="M243.273,162.089c0,0-3.75,27.611-3.837,32.415c-0.118,6.605,2.121,13.393,2.121,13.393
			s2.577-4.882,3.025-13.597c0.441-8.59-0.096-27.318,0.095-32.211H243.273z"/>
		<path style="opacity:0.2;" d="M244.894,137.69c0.59,2.569,0.877,6.306-0.269,9.264c0.93-0.137,1.885-0.421,2.832-0.863
			c3.589-1.674,5.401-4.305,7.318-8.211c0.161-1,0.354-1.98,0.566-2.927L244.894,137.69z"/>
		<g>
			<path style="fill:#B55B52;" d="M236.405,130.245c0.359,2.023,1.623,3.669,3.029,4.585c2.114,1.377,3.976-0.364,4.063-2.781
				c0.078-2.176-0.928-5.514-3.375-5.918C237.712,125.733,235.995,127.932,236.405,130.245z"/>
			<path style="opacity:0.2;" d="M236.405,130.245c0.359,2.023,1.623,3.669,3.029,4.585c2.114,1.377,3.976-0.364,4.063-2.781
				c0.078-2.176-0.928-5.514-3.375-5.918C237.712,125.733,235.995,127.932,236.405,130.245z"/>
		</g>
		<path style="fill:#263238;" d="M246.745,115.501c-4.122,0.192-9.97,9.463-6.359,13.437
			C243.997,132.913,254.552,115.137,246.745,115.501z"/>
		<path style="fill:#B55B52;" d="M260.766,130.262c-3.258,7.005-4.813,11.262-9.849,13.604c-7.575,3.523-15.05-3.026-13.927-10.812
			c1.01-7.008,6.169-17.287,14.245-17.548C259.19,115.248,264.025,123.257,260.766,130.262z"/>
		<path style="fill:#263238;" d="M266.217,121.261c3.984,2.581-1.664,14.004-6.811,13.687c-2.271-0.14-1.844-5.678,0.426-10.446
			c-4.143-0.181-17.778-3.199-17.337-9.656c0.142-2.076,2.278-3.334,5.329-4.913c3.051-1.579,2.043-4.416,2.043-4.416
			s2.313,2.076,1.154,5.234c-1.159,3.158,5.171,1.911,8.816,1.813C266.363,112.391,270.1,117.265,266.217,121.261z"/>
		<path style="fill:#263238;" d="M265.321,121.26c0,0,3.21-1.206,4.303,1.601C268.932,122.466,267.726,121.545,265.321,121.26z"/>
		<path style="fill:#B55B52;" d="M260.863,139.358c-1.656,1.272-3.728,1.676-5.402,1.443c-2.519-0.349-2.709-2.854-1.113-4.71
			c1.436-1.67,4.478-3.5,6.575-2.21C262.99,135.152,262.757,137.904,260.863,139.358z"/>
		<path style="fill:#407BFF;" d="M225.689,220.162c0,0-2.476,57.669-2.214,81.191c0.273,24.466,6.855,95.838,6.855,95.838h13.066
			c0,0,2.408-69.943,3.579-93.971c1.276-26.194,5.833-83.058,5.833-83.058H225.689z"/>
		<path style="fill:#263238;" d="M244.356,393.188c0.06,0-0.105,4.269-0.105,4.269H229.19l-0.516-4.796L244.356,393.188z"/>
		<path style="opacity:0.2;" d="M243.359,235.426c-0.452,28.619,0.847,46.001,4.041,59.972c0.788-13.65,2.078-31.698,3.205-46.693
			L243.359,235.426z"/>
		<path style="fill:#407BFF;" d="M240.323,220.162c0,0,7.308,58.945,11.572,81.028c4.67,24.183,22.52,96.001,22.52,96.001h14.127
			c0,0-11.146-69.866-13.562-93.809c-2.622-25.986-8.038-83.22-8.038-83.22H240.323z"/>
		<path style="fill:#263238;" d="M288.633,393.51c0.06,0,0.607,3.948,0.607,3.948h-15.528l-1.263-4.533L288.633,393.51z"/>
		<path style="opacity:0.2;" d="M283.054,388.844c-0.064,0-0.118-0.046-0.127-0.11c-0.102-0.714-10.155-62.942-12.325-84.453
			c-2.356-23.345-7.255-75.104-7.304-75.625c-0.007-0.072,0.047-0.138,0.119-0.146c0.069-0.009,0.137,0.043,0.143,0.115
			c0.049,0.52,4.948,52.279,7.304,75.623c2.169,21.506,12.223,83.729,12.323,84.443c0.011,0.072-0.039,0.139-0.112,0.151
			C283.069,388.844,283.061,388.844,283.054,388.844z"/>
		<path style="fill:#263238;" d="M249.204,128.252c-0.23,0.584-0.722,0.943-1.101,0.802c-0.378-0.141-0.498-0.728-0.268-1.312
			c0.23-0.584,0.722-0.942,1.101-0.802C249.314,127.081,249.434,127.668,249.204,128.252z"/>
		<path style="fill:#263238;" d="M242.667,125.816c-0.23,0.584-0.723,0.943-1.101,0.802c-0.378-0.141-0.498-0.728-0.268-1.312
			c0.23-0.584,0.722-0.943,1.1-0.802C242.777,124.645,242.897,125.232,242.667,125.816z"/>
		<path style="fill:#A02724;" d="M244.631,126.881c0,0-2.641,2.877-4.728,3.962c0.644,1.345,2.557,1.553,2.557,1.553
			L244.631,126.881z"/>
		<path style="fill:#263238;" d="M243.51,134.635c-0.093-0.035-0.139-0.14-0.102-0.235c0.037-0.094,0.144-0.143,0.237-0.108
			c2.539,0.946,4.428-0.402,4.447-0.416c0.083-0.06,0.198-0.043,0.254,0.038c0.058,0.081,0.039,0.195-0.044,0.255
			C248.219,134.23,246.232,135.648,243.51,134.635z"/>
		<path style="fill:#263238;" d="M252.011,126.858c-0.103-0.038-0.186-0.123-0.217-0.237c-0.435-1.56-1.712-1.952-1.725-1.955
			c-0.183-0.046-0.299-0.259-0.238-0.453c0.061-0.194,0.267-0.305,0.459-0.249c0.068,0.019,1.67,0.508,2.208,2.445
			c0.054,0.193-0.061,0.397-0.255,0.455C252.164,126.889,252.083,126.885,252.011,126.858z"/>
		<path style="fill:#263238;" d="M240.652,122.384c-0.048-0.022-0.093-0.054-0.129-0.099c-0.126-0.154-0.102-0.384,0.056-0.514
			c1.576-1.304,3.185-0.838,3.253-0.818c0.189,0.049,0.296,0.261,0.234,0.455c-0.063,0.193-0.268,0.302-0.459,0.246l0,0
			c-0.053-0.016-1.312-0.366-2.57,0.675C240.924,122.422,240.774,122.439,240.652,122.384z"/>
		<path style="fill:#B55B52;" d="M264.258,165.791l10.717-3.488c0,0,9.868,25.132,13.52,26.591
			c4.969,1.985,15.075,7.28,21.352,8.537c0.718,1.059,1.684,4.32,1.383,5.469c-9.001,2.34-27.324-2.593-30.933-5.83
			C272.07,189.69,264.258,165.791,264.258,165.791z"/>
		<path style="fill:#263238;" d="M271.001,153.097c7.271,1.061,15.009,26.349,15.009,26.349l-15.539,8.657
			c0,0-6.455-12.027-9.565-20.958C257.647,157.787,263.201,151.959,271.001,153.097z"/>
		<path style="fill:#407BFF;" d="M276.52,408.078c-0.587,0-1.134-0.1-1.475-0.392c-0.271-0.233-0.39-0.558-0.354-0.966
			c0.026-0.304,0.191-0.448,0.325-0.517c0.855-0.437,3.314,1.09,3.591,1.266c0.061,0.04,0.092,0.113,0.079,0.185
			c-0.014,0.071-0.07,0.13-0.141,0.147C278.006,407.931,277.233,408.078,276.52,408.078z M275.413,406.482
			c-0.096,0-0.176,0.014-0.238,0.046c-0.05,0.026-0.108,0.073-0.12,0.214c-0.026,0.291,0.05,0.508,0.231,0.664
			c0.412,0.355,1.419,0.402,2.735,0.138C277.163,407.04,276.004,406.482,275.413,406.482z"/>
		<path style="fill:#407BFF;" d="M278.502,407.807c-0.03,0-0.06-0.007-0.087-0.021c-0.788-0.434-2.289-2.124-2.105-2.984
			c0.033-0.156,0.155-0.425,0.593-0.478c0.287-0.036,0.544,0.044,0.772,0.234c0.878,0.732,1.008,2.958,1.013,3.053
			c0.004,0.067-0.03,0.131-0.087,0.167C278.572,407.797,278.537,407.807,278.502,407.807z M277.022,404.68
			c-0.027,0-0.054,0.003-0.083,0.006c-0.238,0.029-0.262,0.138-0.271,0.184c-0.11,0.508,0.842,1.785,1.621,2.388
			c-0.074-0.651-0.288-1.948-0.851-2.418C277.31,404.733,277.173,404.68,277.022,404.68z"/>
		<path style="fill:#407BFF;" d="M230.151,408.079c-0.766,0-1.471-0.118-1.862-0.474c-0.249-0.225-0.357-0.525-0.32-0.889
			c0.022-0.217,0.13-0.385,0.313-0.485c0.948-0.527,4.011,1.049,4.358,1.23c0.068,0.036,0.105,0.111,0.092,0.188
			c-0.013,0.077-0.072,0.138-0.149,0.154C231.926,407.934,231.001,408.079,230.151,408.079z M228.795,406.482
			c-0.142,0-0.259,0.021-0.343,0.067c-0.074,0.041-0.11,0.1-0.12,0.196c-0.025,0.247,0.043,0.44,0.206,0.588
			c0.464,0.421,1.732,0.492,3.441,0.21C230.926,407.034,229.525,406.482,228.795,406.482z"/>
		<path style="fill:#407BFF;" d="M232.547,407.807c-0.026,0-0.051-0.006-0.075-0.016c-0.92-0.418-2.724-2.085-2.561-2.958
			c0.038-0.204,0.19-0.46,0.693-0.509c0.367-0.046,0.712,0.067,1.006,0.313c0.961,0.806,1.118,2.883,1.125,2.971
			c0.004,0.064-0.026,0.127-0.08,0.166C232.622,407.795,232.585,407.807,232.547,407.807z M230.742,404.68
			c-0.036,0-0.073,0.003-0.11,0.006c-0.33,0.034-0.354,0.163-0.362,0.206c-0.097,0.524,1.124,1.834,2.06,2.405
			c-0.084-0.606-0.329-1.85-0.959-2.378C231.18,404.758,230.974,404.68,230.742,404.68z"/>
		<path style="fill:#B55B52;" d="M310.539,203.066l7.342,0.352l-3.901-8.002c0,0-6.434-0.095-7.485,4.85L310.539,203.066z"/>
		<polygon style="fill:#B55B52;" points="323.828,199.547 319.935,192.482 313.98,195.417 317.881,203.419 		"/>
	</g>
</g>
</svg>
